{
	"asset":{
		"generator":"Khronos glTF Blender I/O v4.3.47",
		"version":"2.0"
	},
	"scene":0,
	"scenes":[
		{
			"name":"Scene",
			"nodes":[
				0,
				1,
				2,
				3,
				4,
				5,
				6,
				7,
				8,
				9,
				10,
				11,
				12,
				13,
				14,
				15
			]
		}
	],
	"nodes":[
		{
			"mesh":0,
			"name":"Cube",
			"rotation":[
				-0.9889561533927917,
				-0.03278180956840515,
				-0.1437600553035736,
				0.014970612712204456
			],
			"scale":[
				-0.05087149143218994,
				-0.16367751359939575,
				-0.045708488672971725
			],
			"translation":[
				1.1090658903121948,
				1.3215367794036865,
				1.0861225128173828
			]
		},
		{
			"mesh":1,
			"name":"Cube.001",
			"rotation":[
				0.9117850065231323,
				-0.027807818725705147,
				0.06261790543794632,
				0.40491217374801636
			],
			"scale":[
				-0.05087148770689964,
				-0.16367751359939575,
				-0.045708488672971725
			],
			"translation":[
				1.352475643157959,
				0.7320729494094849,
				-0.06476161628961563
			]
		},
		{
			"mesh":2,
			"name":"Cube.002",
			"rotation":[
				-0.9236449599266052,
				-0.06768393516540527,
				-0.19281812012195587,
				0.32422226667404175
			],
			"scale":[
				-0.05087149515748024,
				-0.16367751359939575,
				-0.04570848494768143
			],
			"translation":[
				0.8242916464805603,
				0.7411092519760132,
				2.2590279579162598
			]
		},
		{
			"mesh":3,
			"name":"Cube.003",
			"rotation":[
				-0.7037948966026306,
				0,
				0,
				0.7104032635688782
			],
			"scale":[
				-0.05087149143218994,
				-0.16367751359939575,
				-0.045708488672971725
			],
			"translation":[
				1.4111378192901611,
				-0.2074541449546814,
				-0.5308223962783813
			]
		},
		{
			"mesh":4,
			"name":"Cube.005",
			"rotation":[
				0.9964762926101685,
				0.009242375381290913,
				0.0833631083369255,
				0.0003983417118433863
			],
			"scale":[
				-0.05087149143218994,
				-0.16367751359939575,
				-0.045708488672971725
			],
			"translation":[
				0.9923052787780762,
				-2.035857915878296,
				1.086210012435913
			]
		},
		{
			"mesh":5,
			"name":"Cube.006",
			"rotation":[
				0.8875206112861633,
				-0.09686815738677979,
				0.21812859177589417,
				0.3941366374492645
			],
			"scale":[
				-0.05087149143218994,
				-0.16367751359939575,
				-0.045708488672971725
			],
			"translation":[
				0.7381289005279541,
				-1.4141720533370972,
				2.337435722351074
			]
		},
		{
			"mesh":6,
			"name":"Cube.007",
			"rotation":[
				-0.9435564875602722,
				0,
				0,
				0.331211656332016
			],
			"scale":[
				-0.05087149143218994,
				-0.16367749869823456,
				-0.045708488672971725
			],
			"translation":[
				0.18854403495788574,
				-1.5330525636672974,
				-0.04994889348745346
			]
		},
		{
			"mesh":7,
			"name":"Sphere",
			"scale":[
				1,
				0.6171127557754517,
				0.6171127557754517
			],
			"translation":[
				0.4981015622615814,
				-0.42607253789901733,
				1.0478047132492065
			]
		},
		{
			"mesh":8,
			"name":"Cone",
			"rotation":[
				0.9999003410339355,
				0.014119254425168037,
				0,
				0
			],
			"scale":[
				-0.11497330665588379,
				-0.6628968715667725,
				-0.17741388082504272
			],
			"translation":[
				1.2052955627441406,
				0.3386782705783844,
				1.0989724397659302
			]
		},
		{
			"mesh":9,
			"name":"Cone.001",
			"rotation":[
				0,
				-0.12315735965967178,
				0,
				0.9923871755599976
			],
			"scale":[
				0.04995041340589523,
				0.6231269240379333,
				0.35695257782936096
			],
			"translation":[
				1.1941983699798584,
				-0.6728295087814331,
				1.1036688089370728
			]
		},
		{
			"mesh":10,
			"name":"Cylinder",
			"rotation":[
				0.05919754505157471,
				0.96680748462677,
				-0.23177345097064972,
				0.08977878093719482
			],
			"scale":[
				0.25505807995796204,
				0.3184383511543274,
				0.324472039937973
			],
			"translation":[
				0.24664491415023804,
				1.8501814603805542,
				-0.7288810610771179
			]
		},
		{
			"mesh":11,
			"name":"Cylinder.001",
			"scale":[
				0.21669568121433258,
				0.5207890272140503,
				0.1968294233083725
			],
			"translation":[
				-0.10713010281324387,
				2.3228793144226074,
				0.914214015007019
			]
		},
		{
			"mesh":12,
			"name":"Cylinder.002",
			"rotation":[
				0,
				-0.09009188413619995,
				0,
				0.995933473110199
			],
			"scale":[
				0.4086253345012665,
				0.21171997487545013,
				0.47576904296875
			],
			"translation":[
				-0.1259036511182785,
				2.7809553146362305,
				0.9130527377128601
			]
		},
		{
			"mesh":13,
			"name":"Cube.004",
			"rotation":[
				-0.685797929763794,
				-0.15119537711143494,
				-0.15814143419265747,
				0.694127082824707
			],
			"scale":[
				-0.05087149143218994,
				-0.16367751359939575,
				-0.045708488672971725
			],
			"translation":[
				0.7507737874984741,
				-0.1995384842157364,
				2.6132757663726807
			]
		},
		{
			"mesh":14,
			"name":"Cube.008",
			"rotation":[
				-0.9202039837837219,
				0.08660188317298889,
				-0.10518593341112137,
				0.36696165800094604
			],
			"scale":[
				-0.05087149515748024,
				-0.16367751359939575,
				-0.045708492398262024
			],
			"translation":[
				1.2952605485916138,
				-1.4608755111694336,
				-0.008370919153094292
			]
		},
		{
			"mesh":15,
			"name":"Sphere.002",
			"rotation":[
				0.5575686097145081,
				0.44624391198158264,
				-0.43873223662376404,
				0.5454334616661072
			],
			"scale":[
				3.007763147354126,
				1.4000431299209595,
				2.6463537216186523
			],
			"translation":[
				-0.19989633560180664,
				-0.3079897165298462,
				0.8501904010772705
			]
		}
	],
	"materials":[
		{
			"doubleSided":true,
			"name":"Material.003",
			"pbrMetallicRoughness":{
				"baseColorFactor":[
					0,
					0,
					0,
					1
				],
				"metallicFactor":0,
				"roughnessFactor":0.5
			}
		},
		{
			"doubleSided":true,
			"name":"Material.004",
			"pbrMetallicRoughness":{
				"baseColorFactor":[
					0,
					0,
					0,
					1
				],
				"metallicFactor":0,
				"roughnessFactor":0.5
			}
		},
		{
			"doubleSided":true,
			"name":"Material.006",
			"pbrMetallicRoughness":{
				"baseColorFactor":[
					0,
					0,
					0,
					1
				],
				"metallicFactor":0,
				"roughnessFactor":0.5
			}
		},
		{
			"doubleSided":true,
			"name":"Material.007",
			"pbrMetallicRoughness":{
				"baseColorFactor":[
					0,
					0,
					0,
					1
				],
				"metallicFactor":0,
				"roughnessFactor":0.5
			}
		},
		{
			"doubleSided":true,
			"name":"Material.009",
			"pbrMetallicRoughness":{
				"baseColorFactor":[
					0,
					0,
					0,
					1
				],
				"metallicFactor":0,
				"roughnessFactor":0.5
			}
		},
		{
			"doubleSided":true,
			"name":"Material.010",
			"pbrMetallicRoughness":{
				"baseColorFactor":[
					0,
					0,
					0,
					1
				],
				"metallicFactor":0,
				"roughnessFactor":0.5
			}
		},
		{
			"doubleSided":true,
			"name":"Material.011",
			"pbrMetallicRoughness":{
				"baseColorFactor":[
					0,
					0,
					0,
					1
				],
				"metallicFactor":0,
				"roughnessFactor":0.5
			}
		},
		{
			"doubleSided":true,
			"name":"Material.012",
			"pbrMetallicRoughness":{
				"baseColorFactor":[
					0,
					0,
					0,
					1
				],
				"metallicFactor":0,
				"roughnessFactor":0.5
			}
		},
		{
			"doubleSided":true,
			"name":"Material.013",
			"pbrMetallicRoughness":{
				"baseColorFactor":[
					0,
					0,
					0,
					1
				],
				"metallicFactor":0,
				"roughnessFactor":0.5
			}
		},
		{
			"doubleSided":true,
			"name":"Material.014",
			"pbrMetallicRoughness":{
				"baseColorFactor":[
					0,
					0,
					0,
					1
				],
				"metallicFactor":0,
				"roughnessFactor":0.5
			}
		},
		{
			"doubleSided":true,
			"name":"Material.015",
			"pbrMetallicRoughness":{
				"baseColorFactor":[
					0.8003553152084351,
					0.002498253481462598,
					0,
					1
				],
				"metallicFactor":0,
				"roughnessFactor":0.5
			}
		},
		{
			"doubleSided":true,
			"name":"Material.017",
			"pbrMetallicRoughness":{
				"baseColorFactor":[
					0.7990978360176086,
					0.7529429793357849,
					0.7083761692047119,
					1
				],
				"metallicFactor":0,
				"roughnessFactor":0.5
			}
		},
		{
			"doubleSided":true,
			"name":"Material.016",
			"pbrMetallicRoughness":{
				"baseColorFactor":[
					0.7990978360176086,
					0.7529429793357849,
					0.7083761692047119,
					1
				],
				"metallicFactor":0,
				"roughnessFactor":0.5
			}
		},
		{
			"doubleSided":true,
			"name":"Material.019",
			"pbrMetallicRoughness":{
				"baseColorFactor":[
					0,
					0,
					0,
					1
				],
				"metallicFactor":0,
				"roughnessFactor":0.5
			}
		},
		{
			"doubleSided":true,
			"name":"Material.020",
			"pbrMetallicRoughness":{
				"baseColorFactor":[
					0,
					0,
					0,
					1
				],
				"metallicFactor":0,
				"roughnessFactor":0.5
			}
		},
		{
			"doubleSided":true,
			"name":"Material.021",
			"pbrMetallicRoughness":{
				"baseColorFactor":[
					0.13843047618865967,
					0.10461640357971191,
					0.5711250901222229,
					1
				],
				"metallicFactor":0,
				"roughnessFactor":0.5
			}
		},
		{
			"doubleSided":true,
			"name":"Material.022",
			"pbrMetallicRoughness":{
				"baseColorFactor":[
					0.7990978360176086,
					0.7529429793357849,
					0.7083761692047119,
					1
				],
				"metallicFactor":0,
				"roughnessFactor":0.5
			}
		}
	],
	"meshes":[
		{
			"name":"Cube.001",
			"primitives":[
				{
					"attributes":{
						"POSITION":0,
						"NORMAL":1,
						"TEXCOORD_0":2
					},
					"indices":3,
					"material":0
				}
			]
		},
		{
			"name":"Cube.002",
			"primitives":[
				{
					"attributes":{
						"POSITION":4,
						"NORMAL":5,
						"TEXCOORD_0":6
					},
					"indices":3,
					"material":1
				}
			]
		},
		{
			"name":"Cube.004",
			"primitives":[
				{
					"attributes":{
						"POSITION":7,
						"NORMAL":8,
						"TEXCOORD_0":9
					},
					"indices":3,
					"material":2
				}
			]
		},
		{
			"name":"Cube.005",
			"primitives":[
				{
					"attributes":{
						"POSITION":10,
						"NORMAL":11,
						"TEXCOORD_0":12
					},
					"indices":3,
					"material":3
				}
			]
		},
		{
			"name":"Cube.007",
			"primitives":[
				{
					"attributes":{
						"POSITION":13,
						"NORMAL":14,
						"TEXCOORD_0":15
					},
					"indices":3,
					"material":4
				}
			]
		},
		{
			"name":"Cube.008",
			"primitives":[
				{
					"attributes":{
						"POSITION":16,
						"NORMAL":17,
						"TEXCOORD_0":18
					},
					"indices":3,
					"material":5
				}
			]
		},
		{
			"name":"Cube.009",
			"primitives":[
				{
					"attributes":{
						"POSITION":19,
						"NORMAL":20,
						"TEXCOORD_0":21
					},
					"indices":3,
					"material":6
				}
			]
		},
		{
			"name":"Sphere.003",
			"primitives":[
				{
					"attributes":{
						"POSITION":22,
						"NORMAL":23,
						"TEXCOORD_0":24
					},
					"indices":25,
					"material":7
				}
			]
		},
		{
			"name":"Cone",
			"primitives":[
				{
					"attributes":{
						"POSITION":26,
						"NORMAL":27,
						"TEXCOORD_0":28
					},
					"indices":29,
					"material":8
				}
			]
		},
		{
			"name":"Cone.001",
			"primitives":[
				{
					"attributes":{
						"POSITION":30,
						"NORMAL":31,
						"TEXCOORD_0":32
					},
					"indices":29,
					"material":9
				}
			]
		},
		{
			"name":"Cylinder",
			"primitives":[
				{
					"attributes":{
						"POSITION":33,
						"NORMAL":34,
						"TEXCOORD_0":35
					},
					"indices":36,
					"material":10
				}
			]
		},
		{
			"name":"Cylinder.001",
			"primitives":[
				{
					"attributes":{
						"POSITION":37,
						"NORMAL":38,
						"TEXCOORD_0":39
					},
					"indices":36,
					"material":11
				}
			]
		},
		{
			"name":"Cylinder.002",
			"primitives":[
				{
					"attributes":{
						"POSITION":40,
						"NORMAL":41,
						"TEXCOORD_0":42
					},
					"indices":36,
					"material":12
				}
			]
		},
		{
			"name":"Cube.010",
			"primitives":[
				{
					"attributes":{
						"POSITION":43,
						"NORMAL":44,
						"TEXCOORD_0":45
					},
					"indices":3,
					"material":13
				}
			]
		},
		{
			"name":"Cube.011",
			"primitives":[
				{
					"attributes":{
						"POSITION":46,
						"NORMAL":47,
						"TEXCOORD_0":48
					},
					"indices":3,
					"material":14
				}
			]
		},
		{
			"name":"Sphere.004",
			"primitives":[
				{
					"attributes":{
						"POSITION":49,
						"NORMAL":50,
						"TEXCOORD_0":51,
						"COLOR_0":52,
						"COLOR_1":53
					},
					"indices":25,
					"material":15
				},
				{
					"attributes":{
						"POSITION":54,
						"NORMAL":55,
						"TEXCOORD_0":56,
						"COLOR_0":57,
						"COLOR_1":58
					},
					"indices":25,
					"material":16
				}
			]
		}
	],
	"accessors":[
		{
			"bufferView":0,
			"componentType":5126,
			"count":24,
			"max":[
				1,
				1,
				1
			],
			"min":[
				-1,
				-1,
				-1
			],
			"type":"VEC3"
		},
		{
			"bufferView":1,
			"componentType":5126,
			"count":24,
			"type":"VEC3"
		},
		{
			"bufferView":2,
			"componentType":5126,
			"count":24,
			"type":"VEC2"
		},
		{
			"bufferView":3,
			"componentType":5123,
			"count":36,
			"type":"SCALAR"
		},
		{
			"bufferView":4,
			"componentType":5126,
			"count":24,
			"max":[
				1,
				1,
				1
			],
			"min":[
				-1,
				-1,
				-1
			],
			"type":"VEC3"
		},
		{
			"bufferView":5,
			"componentType":5126,
			"count":24,
			"type":"VEC3"
		},
		{
			"bufferView":6,
			"componentType":5126,
			"count":24,
			"type":"VEC2"
		},
		{
			"bufferView":7,
			"componentType":5126,
			"count":24,
			"max":[
				1,
				1,
				1
			],
			"min":[
				-1,
				-1,
				-1
			],
			"type":"VEC3"
		},
		{
			"bufferView":8,
			"componentType":5126,
			"count":24,
			"type":"VEC3"
		},
		{
			"bufferView":9,
			"componentType":5126,
			"count":24,
			"type":"VEC2"
		},
		{
			"bufferView":10,
			"componentType":5126,
			"count":24,
			"max":[
				1,
				1,
				1
			],
			"min":[
				-1,
				-1,
				-1
			],
			"type":"VEC3"
		},
		{
			"bufferView":11,
			"componentType":5126,
			"count":24,
			"type":"VEC3"
		},
		{
			"bufferView":12,
			"componentType":5126,
			"count":24,
			"type":"VEC2"
		},
		{
			"bufferView":13,
			"componentType":5126,
			"count":24,
			"max":[
				1,
				1,
				1
			],
			"min":[
				-1,
				-1,
				-1
			],
			"type":"VEC3"
		},
		{
			"bufferView":14,
			"componentType":5126,
			"count":24,
			"type":"VEC3"
		},
		{
			"bufferView":15,
			"componentType":5126,
			"count":24,
			"type":"VEC2"
		},
		{
			"bufferView":16,
			"componentType":5126,
			"count":24,
			"max":[
				1,
				1,
				1
			],
			"min":[
				-1,
				-1,
				-1
			],
			"type":"VEC3"
		},
		{
			"bufferView":17,
			"componentType":5126,
			"count":24,
			"type":"VEC3"
		},
		{
			"bufferView":18,
			"componentType":5126,
			"count":24,
			"type":"VEC2"
		},
		{
			"bufferView":19,
			"componentType":5126,
			"count":24,
			"max":[
				1,
				1,
				1
			],
			"min":[
				-1,
				-1,
				-1
			],
			"type":"VEC3"
		},
		{
			"bufferView":20,
			"componentType":5126,
			"count":24,
			"type":"VEC3"
		},
		{
			"bufferView":21,
			"componentType":5126,
			"count":24,
			"type":"VEC2"
		},
		{
			"bufferView":22,
			"componentType":5126,
			"count":559,
			"max":[
				0.9999997019767761,
				1,
				0.9999993443489075
			],
			"min":[
				-0.9999990463256836,
				-1,
				-1
			],
			"type":"VEC3"
		},
		{
			"bufferView":23,
			"componentType":5126,
			"count":559,
			"type":"VEC3"
		},
		{
			"bufferView":24,
			"componentType":5126,
			"count":559,
			"type":"VEC2"
		},
		{
			"bufferView":25,
			"componentType":5123,
			"count":2880,
			"type":"SCALAR"
		},
		{
			"bufferView":26,
			"componentType":5126,
			"count":65,
			"max":[
				1,
				1,
				1
			],
			"min":[
				-1,
				-1,
				-1
			],
			"type":"VEC3"
		},
		{
			"bufferView":27,
			"componentType":5126,
			"count":65,
			"type":"VEC3"
		},
		{
			"bufferView":28,
			"componentType":5126,
			"count":65,
			"type":"VEC2"
		},
		{
			"bufferView":29,
			"componentType":5123,
			"count":186,
			"type":"SCALAR"
		},
		{
			"bufferView":30,
			"componentType":5126,
			"count":65,
			"max":[
				1,
				1,
				1
			],
			"min":[
				-1,
				-1,
				-1
			],
			"type":"VEC3"
		},
		{
			"bufferView":31,
			"componentType":5126,
			"count":65,
			"type":"VEC3"
		},
		{
			"bufferView":32,
			"componentType":5126,
			"count":65,
			"type":"VEC2"
		},
		{
			"bufferView":33,
			"componentType":5126,
			"count":130,
			"max":[
				1,
				1,
				1
			],
			"min":[
				-1,
				-1,
				-1
			],
			"type":"VEC3"
		},
		{
			"bufferView":34,
			"componentType":5126,
			"count":130,
			"type":"VEC3"
		},
		{
			"bufferView":35,
			"componentType":5126,
			"count":130,
			"type":"VEC2"
		},
		{
			"bufferView":36,
			"componentType":5123,
			"count":372,
			"type":"SCALAR"
		},
		{
			"bufferView":37,
			"componentType":5126,
			"count":130,
			"max":[
				1,
				1,
				1
			],
			"min":[
				-1,
				-1,
				-1
			],
			"type":"VEC3"
		},
		{
			"bufferView":38,
			"componentType":5126,
			"count":130,
			"type":"VEC3"
		},
		{
			"bufferView":39,
			"componentType":5126,
			"count":130,
			"type":"VEC2"
		},
		{
			"bufferView":40,
			"componentType":5126,
			"count":130,
			"max":[
				1,
				1,
				1
			],
			"min":[
				-1,
				-1,
				-1
			],
			"type":"VEC3"
		},
		{
			"bufferView":41,
			"componentType":5126,
			"count":130,
			"type":"VEC3"
		},
		{
			"bufferView":42,
			"componentType":5126,
			"count":130,
			"type":"VEC2"
		},
		{
			"bufferView":43,
			"componentType":5126,
			"count":24,
			"max":[
				1,
				1,
				1
			],
			"min":[
				-1,
				-1,
				-1
			],
			"type":"VEC3"
		},
		{
			"bufferView":44,
			"componentType":5126,
			"count":24,
			"type":"VEC3"
		},
		{
			"bufferView":45,
			"componentType":5126,
			"count":24,
			"type":"VEC2"
		},
		{
			"bufferView":46,
			"componentType":5126,
			"count":24,
			"max":[
				1,
				1,
				1
			],
			"min":[
				-1,
				-1,
				-1
			],
			"type":"VEC3"
		},
		{
			"bufferView":47,
			"componentType":5126,
			"count":24,
			"type":"VEC3"
		},
		{
			"bufferView":48,
			"componentType":5126,
			"count":24,
			"type":"VEC2"
		},
		{
			"bufferView":49,
			"componentType":5126,
			"count":559,
			"max":[
				1.0273239612579346,
				1,
				1.0000052452087402
			],
			"min":[
				-1.0009605884552002,
				-0.6161260604858398,
				-1.0173497200012207
			],
			"type":"VEC3"
		},
		{
			"bufferView":50,
			"componentType":5126,
			"count":559,
			"type":"VEC3"
		},
		{
			"bufferView":51,
			"componentType":5126,
			"count":559,
			"type":"VEC2"
		},
		{
			"bufferView":52,
			"componentType":5121,
			"count":559,
			"normalized":true,
			"type":"VEC4"
		},
		{
			"bufferView":53,
			"componentType":5123,
			"count":559,
			"normalized":true,
			"type":"VEC4"
		},
		{
			"bufferView":54,
			"componentType":5126,
			"count":559,
			"max":[
				0.7482925653457642,
				1.0169744491577148,
				0.781834602355957
			],
			"min":[
				-0.720694899559021,
				0.47697535157203674,
				-0.7730899453163147
			],
			"type":"VEC3"
		},
		{
			"bufferView":55,
			"componentType":5126,
			"count":559,
			"type":"VEC3"
		},
		{
			"bufferView":56,
			"componentType":5126,
			"count":559,
			"type":"VEC2"
		},
		{
			"bufferView":57,
			"componentType":5121,
			"count":559,
			"normalized":true,
			"type":"VEC4"
		},
		{
			"bufferView":58,
			"componentType":5123,
			"count":559,
			"normalized":true,
			"type":"VEC4"
		}
	],
	"bufferViews":[
		{
			"buffer":0,
			"byteLength":288,
			"byteOffset":0,
			"target":34962
		},
		{
			"buffer":0,
			"byteLength":288,
			"byteOffset":288,
			"target":34962
		},
		{
			"buffer":0,
			"byteLength":192,
			"byteOffset":576,
			"target":34962
		},
		{
			"buffer":0,
			"byteLength":72,
			"byteOffset":768,
			"target":34963
		},
		{
			"buffer":0,
			"byteLength":288,
			"byteOffset":840,
			"target":34962
		},
		{
			"buffer":0,
			"byteLength":288,
			"byteOffset":1128,
			"target":34962
		},
		{
			"buffer":0,
			"byteLength":192,
			"byteOffset":1416,
			"target":34962
		},
		{
			"buffer":0,
			"byteLength":288,
			"byteOffset":1608,
			"target":34962
		},
		{
			"buffer":0,
			"byteLength":288,
			"byteOffset":1896,
			"target":34962
		},
		{
			"buffer":0,
			"byteLength":192,
			"byteOffset":2184,
			"target":34962
		},
		{
			"buffer":0,
			"byteLength":288,
			"byteOffset":2376,
			"target":34962
		},
		{
			"buffer":0,
			"byteLength":288,
			"byteOffset":2664,
			"target":34962
		},
		{
			"buffer":0,
			"byteLength":192,
			"byteOffset":2952,
			"target":34962
		},
		{
			"buffer":0,
			"byteLength":288,
			"byteOffset":3144,
			"target":34962
		},
		{
			"buffer":0,
			"byteLength":288,
			"byteOffset":3432,
			"target":34962
		},
		{
			"buffer":0,
			"byteLength":192,
			"byteOffset":3720,
			"target":34962
		},
		{
			"buffer":0,
			"byteLength":288,
			"byteOffset":3912,
			"target":34962
		},
		{
			"buffer":0,
			"byteLength":288,
			"byteOffset":4200,
			"target":34962
		},
		{
			"buffer":0,
			"byteLength":192,
			"byteOffset":4488,
			"target":34962
		},
		{
			"buffer":0,
			"byteLength":288,
			"byteOffset":4680,
			"target":34962
		},
		{
			"buffer":0,
			"byteLength":288,
			"byteOffset":4968,
			"target":34962
		},
		{
			"buffer":0,
			"byteLength":192,
			"byteOffset":5256,
			"target":34962
		},
		{
			"buffer":0,
			"byteLength":6708,
			"byteOffset":5448,
			"target":34962
		},
		{
			"buffer":0,
			"byteLength":6708,
			"byteOffset":12156,
			"target":34962
		},
		{
			"buffer":0,
			"byteLength":4472,
			"byteOffset":18864,
			"target":34962
		},
		{
			"buffer":0,
			"byteLength":5760,
			"byteOffset":23336,
			"target":34963
		},
		{
			"buffer":0,
			"byteLength":780,
			"byteOffset":29096,
			"target":34962
		},
		{
			"buffer":0,
			"byteLength":780,
			"byteOffset":29876,
			"target":34962
		},
		{
			"buffer":0,
			"byteLength":520,
			"byteOffset":30656,
			"target":34962
		},
		{
			"buffer":0,
			"byteLength":372,
			"byteOffset":31176,
			"target":34963
		},
		{
			"buffer":0,
			"byteLength":780,
			"byteOffset":31548,
			"target":34962
		},
		{
			"buffer":0,
			"byteLength":780,
			"byteOffset":32328,
			"target":34962
		},
		{
			"buffer":0,
			"byteLength":520,
			"byteOffset":33108,
			"target":34962
		},
		{
			"buffer":0,
			"byteLength":1560,
			"byteOffset":33628,
			"target":34962
		},
		{
			"buffer":0,
			"byteLength":1560,
			"byteOffset":35188,
			"target":34962
		},
		{
			"buffer":0,
			"byteLength":1040,
			"byteOffset":36748,
			"target":34962
		},
		{
			"buffer":0,
			"byteLength":744,
			"byteOffset":37788,
			"target":34963
		},
		{
			"buffer":0,
			"byteLength":1560,
			"byteOffset":38532,
			"target":34962
		},
		{
			"buffer":0,
			"byteLength":1560,
			"byteOffset":40092,
			"target":34962
		},
		{
			"buffer":0,
			"byteLength":1040,
			"byteOffset":41652,
			"target":34962
		},
		{
			"buffer":0,
			"byteLength":1560,
			"byteOffset":42692,
			"target":34962
		},
		{
			"buffer":0,
			"byteLength":1560,
			"byteOffset":44252,
			"target":34962
		},
		{
			"buffer":0,
			"byteLength":1040,
			"byteOffset":45812,
			"target":34962
		},
		{
			"buffer":0,
			"byteLength":288,
			"byteOffset":46852,
			"target":34962
		},
		{
			"buffer":0,
			"byteLength":288,
			"byteOffset":47140,
			"target":34962
		},
		{
			"buffer":0,
			"byteLength":192,
			"byteOffset":47428,
			"target":34962
		},
		{
			"buffer":0,
			"byteLength":288,
			"byteOffset":47620,
			"target":34962
		},
		{
			"buffer":0,
			"byteLength":288,
			"byteOffset":47908,
			"target":34962
		},
		{
			"buffer":0,
			"byteLength":192,
			"byteOffset":48196,
			"target":34962
		},
		{
			"buffer":0,
			"byteLength":6708,
			"byteOffset":48388,
			"target":34962
		},
		{
			"buffer":0,
			"byteLength":6708,
			"byteOffset":55096,
			"target":34962
		},
		{
			"buffer":0,
			"byteLength":4472,
			"byteOffset":61804,
			"target":34962
		},
		{
			"buffer":0,
			"byteLength":2236,
			"byteOffset":66276,
			"target":34962
		},
		{
			"buffer":0,
			"byteLength":4472,
			"byteOffset":68512,
			"target":34962
		},
		{
			"buffer":0,
			"byteLength":6708,
			"byteOffset":72984,
			"target":34962
		},
		{
			"buffer":0,
			"byteLength":6708,
			"byteOffset":79692,
			"target":34962
		},
		{
			"buffer":0,
			"byteLength":4472,
			"byteOffset":86400,
			"target":34962
		},
		{
			"buffer":0,
			"byteLength":2236,
			"byteOffset":90872,
			"target":34962
		},
		{
			"buffer":0,
			"byteLength":4472,
			"byteOffset":93108,
			"target":34962
		}
	],
	"buffers":[
		{
			"byteLength":97580,
			"uri":"serenastopwatch.bin"
		}
	]
}
